<?xml version="1.0" encoding="UTF-8" standalone="no"?>
<!DOCTYPE svg PUBLIC "-//W3C//DTD SVG 1.1//EN" "http://www.w3.org/Graphics/SVG/1.1/DTD/svg11.dtd">
<svg width="100%" height="100%" viewBox="0 0 1199 1189" version="1.1" xmlns="http://www.w3.org/2000/svg" xmlns:xlink="http://www.w3.org/1999/xlink" xml:space="preserve" xmlns:serif="http://www.serif.com/" style="fill-rule:evenodd;clip-rule:evenodd;stroke-linejoin:round;stroke-miterlimit:2;">
    <g transform="matrix(4.16667,0,0,4.16667,-3059.18,-267.436)">
        <g>
            <g transform="matrix(1,0,0,1,741.277,233.724)">
                <path d="M0,-60.458C-23.962,-22.119 20.645,0 20.645,0C17.968,-30.779 -5.55,-32.704 0,-60.458" style="fill:rgb(87,165,248);fill-rule:nonzero;"/>
            </g>
            <g transform="matrix(1,0,0,1,823.213,151.736)">
                <path d="M0,-57.772C-13.337,-39.357 -56.671,-30.147 -47.417,0C-35.282,-28.083 -2.192,-15.189 0,-57.772" style="fill:rgb(87,165,248);fill-rule:nonzero;"/>
            </g>
        </g>
        <g>
            <g transform="matrix(1,0,0,1,980.292,93.9637)">
                <path d="M0,57.772C9.254,27.625 -34.081,18.415 -47.418,0C-45.226,42.584 -12.136,29.689 0,57.772" style="fill:rgb(87,165,248);fill-rule:nonzero;"/>
            </g>
            <g transform="matrix(1,0,0,1,1014.81,233.724)">
                <path d="M0,-60.458C5.551,-32.704 -17.968,-30.779 -20.644,0C-20.644,0 23.962,-22.119 0,-60.458" style="fill:rgb(87,165,248);fill-rule:nonzero;"/>
            </g>
        </g>
        <g>
            <g transform="matrix(1,0,0,1,975.593,154.4)">
                <path d="M0,90.422C-5.307,95.54 -11.618,101.144 -21.054,104.204C17.915,83.96 31.507,22.397 17.099,-11.362C19.42,5.588 11.886,16.579 6.687,22.545C6.364,31.491 4.23,41.747 -1.7,51.858C24.754,-24.637 -66.33,-13.44 -62.896,-61.497C-65.008,-56.17 -66.591,-51.093 -67.552,-45.894C-71.512,-62.759 -83.508,-77.896 -95.527,-90.215C-88.83,-63.543 -104.787,-48.098 -126.654,-29.885C-125.816,-40.172 -127.922,-50.698 -132.201,-61.497C-128.769,-13.44 -219.852,-24.637 -193.398,51.858C-199.329,41.747 -201.463,31.491 -201.785,22.545C-206.984,16.579 -214.518,5.588 -212.196,-11.362C-226.605,22.397 -213.014,83.96 -174.044,104.204C-183.48,101.144 -189.792,95.54 -195.099,90.422C-201.156,89.023 -213.223,90.956 -220.491,94.438C-170.072,107.565 -174.682,150.991 -120.844,180.637C-139.58,155.602 -153.789,127.345 -163.223,97.458C-167.014,85.451 -170.071,73.103 -172.152,60.68C-172.971,55.795 -173.752,50.593 -174.068,45.639L-174.391,40.591L-97.549,-9.992L-20.707,40.591L-21.029,45.639C-21.346,50.593 -22.128,55.795 -22.945,60.68C-25.026,73.103 -28.085,85.451 -31.875,97.458C-41.309,127.345 -55.519,155.602 -74.254,180.637C-20.416,150.991 -25.025,107.565 25.393,94.438C18.125,90.956 6.059,89.023 0,90.422" style="fill:rgb(87,165,248);fill-rule:nonzero;"/>
            </g>
            <g>
                <g transform="matrix(1,0,0,1,860.27,247.368)">
                    <path d="M0,30.423L0,30.421C-5.834,18.707 -10.735,6.515 -14.685,-5.996C-17.687,-15.506 -20.173,-25.273 -21.962,-35.102L9.854,-56.047L-13.902,-71.684L-50.056,-47.886C-50.056,-47.886 -44.817,34.125 17.773,102.107C24.062,95.276 29.773,88.303 34.957,81.286C22.713,67.912 12.079,53.142 3.499,37.183C1.21,33.003 0.031,30.488 0,30.423" style="fill:rgb(7,30,52);fill-rule:nonzero;"/>
                </g>
                <g transform="matrix(1,0,0,1,878.044,321.39)">
                    <path d="M0,-166.557L-23.756,-150.919L0,-135.281L39.734,-109.124C37.945,-99.295 35.459,-89.528 32.457,-80.018C25.958,-59.428 16.881,-39.7 5.308,-21.545C10.517,-14.01 16.217,-6.816 22.35,0C63.903,-60.56 67.828,-121.908 67.828,-121.908L0,-166.557Z" style="fill:rgb(7,30,52);fill-rule:nonzero;"/>
                </g>
            </g>
        </g>
    </g>
</svg>
